<?xml version="1.0" encoding="utf-8"?>
<!-- Generator: Adobe Illustrator 19.2.0, SVG Export Plug-In . SVG Version: 6.00 Build 0)  -->
<svg version="1.1" id="Layer_1" xmlns="http://www.w3.org/2000/svg" xmlns:xlink="http://www.w3.org/1999/xlink" x="0px" y="0px"
	 viewBox="0 0 960 960" style="enable-background:new 0 0 960 960;" xml:space="preserve">
<style type="text/css">
	.st0{fill:#F2F2F2;}
	.st1{fill:#E6E6E6;}
	.st2{fill:#CCCCCC;}
	.st3{fill:#8CC63F;}
	.st4{fill:#808080;}
</style>
<g>
	<path class="st0" d="M712.6,828.9H247.4c-14.4,0-26-11.6-26-26v-607c0-14.4,11.6-26,26-26h465.3c14.4,0,26,11.6,26,26v607
		C738.6,817.2,727,828.9,712.6,828.9z"/>
	<path class="st1" d="M340.3,389.3h-43.8c-11.7,0-21.3-9.5-21.3-21.3v-43.8c0-11.7,9.5-21.3,21.3-21.3h43.8
		c11.7,0,21.3,9.5,21.3,21.3V368C361.6,379.8,352.1,389.3,340.3,389.3z"/>
	<path class="st1" d="M340.3,509.7h-43.8c-11.7,0-21.3-9.5-21.3-21.3v-43.8c0-11.7,9.5-21.3,21.3-21.3h43.8
		c11.7,0,21.3,9.5,21.3,21.3v43.8C361.6,500.2,352.1,509.7,340.3,509.7z"/>
	<rect x="406.3" y="319.9" class="st2" width="282.2" height="20.4"/>
	<rect x="406.3" y="363.1" class="st2" width="282.2" height="20.4"/>
	<rect x="406.3" y="434.7" class="st2" width="282.2" height="20.4"/>
	<rect x="406.3" y="477.9" class="st2" width="282.2" height="20.4"/>
	<rect x="406.3" y="549.6" class="st2" width="282.2" height="20.4"/>
	<rect x="406.3" y="592.7" class="st2" width="282.2" height="20.4"/>
	<rect x="406.3" y="664.4" class="st2" width="282.2" height="20.4"/>
	<rect x="406.3" y="707.5" class="st2" width="282.2" height="20.4"/>
	<path class="st1" d="M340.3,624.8h-43.8c-11.7,0-21.3-9.5-21.3-21.3v-43.8c0-11.7,9.5-21.3,21.3-21.3h43.8
		c11.7,0,21.3,9.5,21.3,21.3v43.8C361.6,615.3,352.1,624.8,340.3,624.8z"/>
	<path class="st1" d="M340.3,739.9h-43.8c-11.7,0-21.3-9.5-21.3-21.3v-43.8c0-11.7,9.5-21.3,21.3-21.3h43.8
		c11.7,0,21.3,9.5,21.3,21.3v43.8C361.6,730.4,352.1,739.9,340.3,739.9z"/>
	<polygon class="st3" points="370.9,294.7 319.2,346.4 296.1,323.3 280.8,338.7 319.2,377.1 320.8,375.5 334.6,361.8 386.3,310.1 	
		"/>
	<polygon class="st3" points="370.9,411 319.2,462.7 296.1,439.6 280.8,454.9 319.2,493.4 320.8,491.7 334.6,478 386.3,426.3 	"/>
	<circle class="st2" cx="290.8" cy="210" r="28.4"/>
	<circle class="st2" cx="386.3" cy="210" r="28.4"/>
	<circle class="st2" cx="481.7" cy="210" r="28.4"/>
	<circle class="st2" cx="577.2" cy="210" r="28.4"/>
	<circle class="st2" cx="672.6" cy="210" r="28.4"/>
	<path class="st4" d="M290.8,222.9L290.8,222.9c-8.6,0-15.6-7-15.6-15.6v-60.6c0-8.6,7-15.6,15.6-15.6l0,0c8.6,0,15.6,7,15.6,15.6
		v60.6C306.4,215.9,299.4,222.9,290.8,222.9z"/>
	<path class="st4" d="M386.3,222.9L386.3,222.9c-8.6,0-15.6-7-15.6-15.6v-60.6c0-8.6,7-15.6,15.6-15.6l0,0c8.6,0,15.6,7,15.6,15.6
		v60.6C401.8,215.9,394.9,222.9,386.3,222.9z"/>
	<path class="st4" d="M481.7,222.9L481.7,222.9c-8.6,0-15.6-7-15.6-15.6v-60.6c0-8.6,7-15.6,15.6-15.6l0,0c8.6,0,15.6,7,15.6,15.6
		v60.6C497.3,215.9,490.3,222.9,481.7,222.9z"/>
	<path class="st4" d="M577.2,222.9L577.2,222.9c-8.6,0-15.6-7-15.6-15.6v-60.6c0-8.6,7-15.6,15.6-15.6l0,0c8.6,0,15.6,7,15.6,15.6
		v60.6C592.7,215.9,585.8,222.9,577.2,222.9z"/>
	<path class="st4" d="M672.6,222.9L672.6,222.9c-8.6,0-15.6-7-15.6-15.6v-60.6c0-8.6,7-15.6,15.6-15.6l0,0c8.6,0,15.6,7,15.6,15.6
		v60.6C688.2,215.9,681.2,222.9,672.6,222.9z"/>
</g>
</svg>
